<svg width="24" height="24" viewBox="0 0 24 24" fill="none" xmlns="http://www.w3.org/2000/svg">
<path d="M12 10.4573C13.5015 10.4573 14.7188 9.24005 14.7188 7.73853C14.7188 6.237 13.5015 5.01978 12 5.01978C10.4985 5.01978 9.28125 6.237 9.28125 7.73853C9.28125 9.24005 10.4985 10.4573 12 10.4573Z" fill="#798F9F"/>
<path d="M17.5 10.4573C18.4492 10.4573 19.2188 9.68777 19.2188 8.73853C19.2188 7.78929 18.4492 7.01978 17.5 7.01978C16.5508 7.01978 15.7812 7.78929 15.7812 8.73853C15.7812 9.68777 16.5508 10.4573 17.5 10.4573Z" fill="#798F9F"/>
<path d="M6.5 10.4573C7.44924 10.4573 8.21875 9.68777 8.21875 8.73853C8.21875 7.78929 7.44924 7.01978 6.5 7.01978C5.55076 7.01978 4.78125 7.78929 4.78125 8.73853C4.78125 9.68777 5.55076 10.4573 6.5 10.4573Z" fill="#798F9F"/>
<path d="M8.19344 12.0008C7.51688 11.4464 6.90416 11.5198 6.12188 11.5198C4.95188 11.5198 4 12.4661 4 13.6289V17.0417C4 17.5467 4.41219 17.9573 4.91906 17.9573C7.10738 17.9573 6.84375 17.9969 6.84375 17.8629C6.84375 15.4446 6.55731 13.6712 8.19344 12.0008Z" fill="#798F9F"/>
<path d="M12.7442 11.5322C11.3778 11.4183 10.1901 11.5335 9.16572 12.3791C7.45144 13.7522 7.78134 15.6011 7.78134 17.8629C7.78134 18.4613 8.26822 18.9572 8.87572 18.9572C15.472 18.9572 15.7346 19.17 16.1257 18.3038C16.254 18.0109 16.2188 18.104 16.2188 15.3016C16.2188 13.0758 14.2916 11.5322 12.7442 11.5322Z" fill="#798F9F"/>
<path d="M17.8782 11.5197C17.0916 11.5197 16.4823 11.4471 15.8066 12.0007C17.4305 13.6587 17.1563 15.3111 17.1563 17.8629C17.1563 17.9977 16.9375 17.9572 19.0482 17.9572C19.5732 17.9572 20.0001 17.5319 20.0001 17.0091V13.6288C20.0001 12.466 19.0482 11.5197 17.8782 11.5197Z" fill="#798F9F"/>
</svg>
